# xmcd CD database file
#
# Track frame offsets:
#	150
#	13859
#	30420
#	42605
#	59627
#	78957
#	93683
#	105604
#	127123
#	136855
#	155649
#	172729
#	194667
#	210451
#
# Disc length: 2946 seconds
#
# Revision: 0
# Processed by: cddbd v1.4PL0 Copyright (c) Steve Scherf et al.
# Submitted via: CDex 1.50beta9
#
DISCID=c30b800e
DTITLE=The Punter's - Fisherman's Blues
DYEAR=2003
DGENRE=Newfoundland
TTITLE0=Galway Girl
TTITLE1=Close Your Eyes
TTITLE2=Flatrockin'
TTITLE3=Heave Away
TTITLE4=No other Baby
TTITLE5=Young Thing
TTITLE6=Brown Eyed Handsome Man
TTITLE7=Fisher's Blues
TTITLE8=I Had But 50 Cents
TTITLE9=Sandymorrissette
TTITLE10=She Ain't you
TTITLE11=All You Ever Do
TTITLE12=Banks Of Newfoundland
TTITLE13=Big Bow Wow
EXTD=YEAR: 2003
EXTT0=
EXTT1=
EXTT2=
EXTT3=
EXTT4=
EXTT5=
EXTT6=
EXTT7=
EXTT8=
EXTT9=
EXTT10=
EXTT11=
EXTT12=
EXTT13=
PLAYORDER=
